<?xml version="1.0" encoding="UTF-8" standalone="no"?>
<!DOCTYPE svg PUBLIC "-//W3C//DTD SVG 1.1//EN" "http://www.w3.org/Graphics/SVG/1.1/DTD/svg11.dtd">
<svg width="100%" height="100%" viewBox="0 0 142 38" version="1.1" xmlns="http://www.w3.org/2000/svg" xmlns:xlink="http://www.w3.org/1999/xlink" xml:space="preserve" xmlns:serif="http://www.serif.com/" style="fill-rule:evenodd;clip-rule:evenodd;stroke-linejoin:round;stroke-miterlimit:2;">
    <g transform="matrix(1,0,0,1,-1428.72,-144.552)">
        <g transform="matrix(0.44861,0,0,0.44861,1500.24,320.727)">
            <g transform="matrix(1,0,0,1,-41.8143,-333.572)">
                <path d="M0,-32.447L-6.977,-32.447L-6.977,-19.136L0,-19.136C4.734,-19.136 7.359,-22.079 7.359,-25.791C7.359,-29.439 4.734,-32.447 0,-32.447M0.832,-11.648L-6.977,-11.648L-6.977,7.487L-16,7.487L-16,-39.934L0.832,-39.934C10.303,-39.934 16.574,-33.598 16.574,-25.791C16.574,-17.792 10.303,-11.648 0.832,-11.648" style="fill:rgb(153,153,153);fill-rule:nonzero;"/>
            </g>
            <g transform="matrix(1,0,0,1,-20.7577,-374.338)">
                <path d="M0,48.253L0,42.237C15.103,28.478 21.055,21.631 21.055,14.016C21.055,10.496 18.367,7.36 13.822,7.36C10.303,7.36 7.744,9.023 5.568,11.199L0.129,5.824C3.328,2.688 7.359,0 14.271,0C23.871,0 29.822,5.952 29.822,13.888C29.822,22.143 23.615,30.59 12.416,40.766L31.293,40.766L31.293,48.253L0,48.253Z" style="fill:rgb(153,153,153);fill-rule:nonzero;"/>
            </g>
            <g transform="matrix(1,0,0,1,36.1367,-333.444)">
                <path d="M0,-32.703L0,7.359L-8.961,7.359L-8.961,-32.703L-22.719,-32.703L-22.719,-40.062L13.758,-40.062L13.758,-32.703L0,-32.703Z" style="fill:rgb(153,153,153);fill-rule:nonzero;"/>
            </g>
            <g transform="matrix(1,0,0,1,68.9669,-331.78)">
                <path d="M0,-22.719C-3.711,-22.719 -6.527,-19.711 -7.231,-15.039L7.041,-15.039C6.336,-19.647 3.904,-22.719 0,-22.719M-7.359,-9.088C-6.592,-3.84 -3.135,-0.256 1.92,-0.256C4.865,-0.256 7.168,-1.216 8.768,-2.88L13.631,1.92C10.111,4.991 6.4,6.399 1.473,6.399C-8.639,6.399 -16.189,-0.705 -16.189,-11.392C-16.189,-22.015 -9.471,-29.118 -0.063,-29.118C8.896,-29.118 15.68,-22.91 15.68,-10.752L15.68,-9.088L-7.359,-9.088Z" style="fill:rgb(153,153,153);fill-rule:nonzero;"/>
            </g>
            <g transform="matrix(1,0,0,1,106.406,-360.899)">
                <path d="M0,35.518C-9.471,35.518 -17.15,28.414 -17.15,17.727C-17.15,7.104 -9.471,0 0,0C4.289,0 8.191,1.537 11.584,4.416L6.527,9.472C4.992,7.936 2.752,6.976 0.385,6.976C-4.607,6.976 -8.512,11.328 -8.512,17.727C-8.512,24.126 -4.607,28.542 0.385,28.542C2.752,28.542 4.992,27.582 6.527,25.983L11.584,31.039C8.191,33.982 4.289,35.518 0,35.518" style="fill:rgb(153,153,153);fill-rule:nonzero;"/>
            </g>
            <g transform="matrix(1,0,0,1,147.877,-373.506)">
                <path d="M0,47.421L0,27.263C0,22.079 -2.494,19.583 -6.654,19.583C-11.262,19.583 -14.719,22.975 -14.719,30.334L-14.719,47.421L-23.037,47.421L-23.037,0L-14.719,0L-14.719,18.175C-13.182,14.976 -9.471,12.607 -4.287,12.607C3.137,12.607 8.256,17.728 8.256,26.11L8.256,47.421L0,47.421Z" style="fill:rgb(153,153,153);fill-rule:nonzero;"/>
            </g>
            <g transform="matrix(1,0,0,1,-114.483,-353.355)">
                <path d="M0,23.685C11.178,22.298 19.859,12.747 19.859,1.2C19.859,-11.296 9.691,-21.464 -2.804,-21.464L-18.012,-21.464L-12.917,-11.921L-2.804,-11.921C4.43,-11.921 10.316,-6.035 10.316,1.2C10.316,8.435 4.43,14.322 -2.804,14.322L-5.501,14.322L-14.821,29.791L-19.783,38.028L-24.073,45.149L-12.933,45.149C-12.128,43.813 -11.293,42.427 -10.451,41.032L-5.089,32.13C-2.635,28.055 -0.664,24.785 0,23.685" style="fill:rgb(153,153,153);fill-rule:nonzero;"/>
            </g>
            <g transform="matrix(1,0,0,1,-76.7313,-348.763)">
                <path d="M0,-3.392C0,-25.755 -18.193,-43.949 -40.556,-43.949C-62.921,-43.949 -81.114,-25.755 -81.114,-3.392C-81.114,6.418 -77.613,15.424 -71.797,22.445L-82.702,40.557L-71.562,40.557C-69.693,37.452 -67.279,33.442 -64.707,29.171C-63.087,26.48 -61.404,23.686 -59.756,20.949C-54.209,11.737 -49.051,3.171 -47.973,1.38L-35.502,1.38L-35.502,-8.163L-53.365,-8.163L-66.479,13.616C-69.696,8.729 -71.571,2.883 -71.571,-3.392C-71.571,-20.493 -57.658,-34.406 -40.556,-34.406C-23.455,-34.406 -9.543,-20.493 -9.543,-3.392C-9.543,13.71 -23.455,27.622 -40.556,27.622C-41.325,27.622 -42.087,27.593 -42.841,27.539L-48.203,36.44C-45.727,36.914 -43.171,37.165 -40.556,37.165C-31.74,37.165 -23.585,34.321 -16.923,29.525C-14.088,27.507 -11.537,25.125 -9.309,22.461L-9.318,22.445C-3.5,15.424 0,6.418 0,-3.392" style="fill:rgb(153,153,153);fill-rule:nonzero;"/>
            </g>
        </g>
    </g>
</svg>
