<?xml version="1.0" encoding="UTF-8" standalone="no"?>
<!DOCTYPE svg PUBLIC "-//W3C//DTD SVG 1.1//EN" "http://www.w3.org/Graphics/SVG/1.1/DTD/svg11.dtd">
<svg width="100%" height="100%" viewBox="0 0 28 29" version="1.1" xmlns="http://www.w3.org/2000/svg" xmlns:xlink="http://www.w3.org/1999/xlink" xml:space="preserve" xmlns:serif="http://www.serif.com/" style="fill-rule:evenodd;clip-rule:evenodd;stroke-linejoin:round;stroke-miterlimit:2;">
    <g transform="matrix(1,0,0,1,-764.04,-1287.86)">
        <g transform="matrix(0.801776,0,0,0.801776,154.513,284.95)">
            <g transform="matrix(0.417882,0,0,0.417882,779.004,1267.31)">
                <path d="M0,23.685C11.178,22.298 19.859,12.747 19.859,1.2C19.859,-11.296 9.691,-21.464 -2.804,-21.464L-18.012,-21.464L-12.917,-11.921L-2.804,-11.921C4.43,-11.921 10.316,-6.035 10.316,1.2C10.316,8.435 4.43,14.322 -2.804,14.322L-5.501,14.322L-14.821,29.791L-19.783,38.028L-24.073,45.149L-12.933,45.149C-12.128,43.813 -11.293,42.427 -10.451,41.032L-5.089,32.13C-2.635,28.055 -0.664,24.785 0,23.685" style="fill:white;fill-rule:nonzero;"/>
            </g>
            <g transform="matrix(0.417882,0,0,0.417882,794.78,1269.23)">
                <path d="M0,-3.392C0,-25.755 -18.193,-43.949 -40.556,-43.949C-62.921,-43.949 -81.114,-25.755 -81.114,-3.392C-81.114,6.418 -77.613,15.424 -71.797,22.445L-82.702,40.557L-71.562,40.557C-69.693,37.452 -67.279,33.442 -64.707,29.171C-63.087,26.48 -61.404,23.686 -59.756,20.949C-54.209,11.737 -49.051,3.171 -47.973,1.38L-35.502,1.38L-35.502,-8.163L-53.365,-8.163L-66.479,13.616C-69.696,8.729 -71.571,2.883 -71.571,-3.392C-71.571,-20.493 -57.658,-34.406 -40.556,-34.406C-23.455,-34.406 -9.543,-20.493 -9.543,-3.392C-9.543,13.71 -23.455,27.622 -40.556,27.622C-41.325,27.622 -42.087,27.593 -42.841,27.539L-48.203,36.44C-45.727,36.914 -43.171,37.165 -40.556,37.165C-31.74,37.165 -23.585,34.321 -16.923,29.525C-14.088,27.507 -11.537,25.125 -9.309,22.461L-9.318,22.445C-3.5,15.424 0,6.418 0,-3.392" style="fill:white;fill-rule:nonzero;"/>
            </g>
        </g>
    </g>
</svg>
